<?xml version="1.0" encoding="utf-8"?>
<!-- Generator: Adobe Illustrator 19.0.0, SVG Export Plug-In . SVG Version: 6.00 Build 0)  -->
<svg version="1.1" id="Layer_1" xmlns="http://www.w3.org/2000/svg" xmlns:xlink="http://www.w3.org/1999/xlink" x="0px" y="0px"
	 viewBox="-280 248.8 280.9 53" style="enable-background:new -280 248.8 280.9 53;" xml:space="preserve">
<style type="text/css">
	.st0{fill:#1D1D1B;}
	.st1{fill:#E42C2D;}
	.st2{fill:#FFFFFF;}
	.st3{fill:#F2F2F2;}
</style>
<g>
	<path class="st0" d="M-215,285.3v-22.6h8c2.1,0,3.8,0.6,5,1.7c1.2,1.1,1.8,2.6,1.8,4.4c0,1.1-0.3,2.2-0.9,3
		c-0.6,0.9-1.4,1.5-2.3,1.8c1.1,0.3,2.1,0.9,2.9,1.9c0.8,1,1.1,2.1,1.1,3.5c0,1.9-0.6,3.4-1.9,4.6c-1.3,1.2-3,1.8-5,1.8H-215z
		 M-210.8,272h3.1c1,0,1.8-0.3,2.4-0.8c0.6-0.5,0.9-1.2,0.9-2.1c0-0.9-0.3-1.6-0.8-2.1c-0.6-0.5-1.4-0.7-2.4-0.7h-3.1V272z
		 M-210.8,281.6h3.6c1.1,0,1.9-0.3,2.5-0.8c0.6-0.5,0.9-1.2,0.9-2.1c0-0.9-0.3-1.6-0.9-2.2c-0.6-0.5-1.4-0.8-2.5-0.8h-3.6V281.6z"/>
	<path class="st0" d="M-196.1,279.5v-9.9h4.2v9c0,0.9,0.2,1.7,0.7,2.3c0.5,0.6,1.2,0.9,2.1,0.9c0.9,0,1.6-0.3,2.2-0.8
		c0.5-0.6,0.8-1.3,0.8-2.2v-9.1h4.2v12.9c0,1,0.1,1.9,0.2,2.8h-4.2c-0.1-0.4-0.1-1-0.1-1.7c-0.4,0.7-1,1.2-1.8,1.6
		c-0.8,0.4-1.6,0.5-2.5,0.5c-1.8,0-3.3-0.6-4.4-1.8C-195.6,282.8-196.1,281.3-196.1,279.5z"/>
	<path class="st0" d="M-178.4,280.9l3.6-0.8c0.1,0.7,0.3,1.2,0.8,1.7c0.5,0.5,1.2,0.7,2.1,0.7c0.7,0,1.2-0.2,1.5-0.5
		c0.4-0.3,0.5-0.7,0.5-1.1c0-0.8-0.6-1.3-1.7-1.5l-2.1-0.5c-1.5-0.3-2.7-0.9-3.5-1.7c-0.8-0.8-1.2-1.8-1.2-3c0-1.4,0.6-2.6,1.7-3.6
		c1.2-1,2.6-1.5,4.4-1.5c0.9,0,1.6,0.1,2.4,0.3c0.7,0.2,1.3,0.5,1.7,0.8c0.5,0.3,0.8,0.7,1.2,1.1c0.3,0.4,0.5,0.8,0.7,1.2
		c0.1,0.4,0.2,0.8,0.3,1.1l-3.6,0.8c-0.1-0.6-0.3-1.1-0.7-1.5c-0.4-0.4-1-0.6-1.8-0.6c-0.6,0-1,0.1-1.4,0.4s-0.6,0.7-0.6,1.1
		c0,0.4,0.1,0.7,0.4,0.9c0.3,0.2,0.6,0.4,1,0.5l2.2,0.5c1.5,0.3,2.7,0.9,3.5,1.8s1.2,1.9,1.2,3.1c0,0.7-0.1,1.3-0.4,1.9
		s-0.6,1.2-1.1,1.6c-0.5,0.5-1.1,0.9-1.9,1.2c-0.8,0.3-1.7,0.4-2.7,0.4c-0.9,0-1.7-0.1-2.5-0.3c-0.7-0.2-1.4-0.5-1.8-0.9
		c-0.5-0.3-0.9-0.7-1.2-1.2c-0.3-0.4-0.6-0.9-0.7-1.3C-178.3,281.7-178.4,281.3-178.4,280.9z"/>
	<path class="st0" d="M-164.9,269.6h4.7l4.2,9.2l3.9-9.2h4.5l-9.8,21.9h-4.5l3.7-8.2L-164.9,269.6z"/>
	<path class="st0" d="M-137.1,285.3v-23.1h4.2v9.1c0.4-0.6,1-1.1,1.8-1.5c0.8-0.4,1.8-0.6,2.9-0.6c1.5,0,2.8,0.4,3.9,1.1
		c1.1,0.7,1.9,1.7,2.5,2.9c0.6,1.2,0.8,2.6,0.8,4.2c0,1.6-0.3,3-0.9,4.2c-0.6,1.3-1.5,2.2-2.6,3c-1.1,0.7-2.4,1.1-3.9,1.1
		c-1,0-2-0.2-2.8-0.6c-0.8-0.4-1.4-1-1.9-1.7v1.9H-137.1z M-133,277.4c0,1.4,0.4,2.5,1.1,3.3c0.8,0.8,1.7,1.2,2.8,1.2
		c1.1,0,2-0.4,2.8-1.2c0.7-0.8,1.1-1.9,1.1-3.3c0-1.4-0.4-2.5-1.1-3.3c-0.7-0.8-1.7-1.2-2.8-1.2c-1.1,0-2,0.4-2.8,1.2
		C-132.6,275-133,276.1-133,277.4z"/>
	<path class="st0" d="M-117.7,285.3v-15.7h4.1v2.4c0.2-0.5,0.5-0.9,0.9-1.3c0.4-0.4,0.8-0.6,1.2-0.8c0.4-0.2,0.8-0.3,1.2-0.3
		c0.4-0.1,0.8-0.1,1.1-0.1c0.2,0,0.6,0,1,0.1v4.3c-0.4-0.1-0.9-0.1-1.3-0.1c-0.6,0-1.1,0.1-1.5,0.2c-0.5,0.2-0.9,0.4-1.3,0.7
		c-0.4,0.3-0.7,0.8-0.9,1.4c-0.2,0.6-0.3,1.3-0.3,2.1v7.2H-117.7z"/>
	<path class="st0" d="M-106.4,277.4c0-1.2,0.2-2.3,0.6-3.4c0.4-1,1-1.9,1.7-2.6c0.7-0.7,1.5-1.2,2.5-1.6c0.9-0.4,1.9-0.6,2.9-0.6
		c2.4,0,4.3,0.7,5.7,2.2c1.4,1.4,2.1,3.4,2.1,6c0,0.2,0,0.4,0,0.6c0,0.2,0,0.4,0,0.5c0,0.1,0,0.2,0,0.2h-11.2c0,1,0.4,1.9,1.2,2.6
		c0.8,0.7,1.7,1,2.7,1c1.8,0,3-0.8,3.6-2.4l3.5,1c-0.4,1.4-1.3,2.6-2.5,3.6c-1.2,0.9-2.8,1.4-4.6,1.4c-1.1,0-2.1-0.2-3.1-0.6
		c-1-0.4-1.8-0.9-2.6-1.6s-1.3-1.6-1.8-2.7C-106.2,279.9-106.4,278.7-106.4,277.4z M-102.2,275.7h7c0-0.8-0.3-1.5-0.9-2.1
		c-0.6-0.6-1.5-0.8-2.6-0.8c-1,0-1.9,0.3-2.5,0.9C-101.8,274.3-102.2,274.9-102.2,275.7z"/>
	<path class="st0" d="M-88.6,281.1c0-1.3,0.4-2.4,1.3-3.3c0.9-0.8,2-1.3,3.4-1.5l3.9-0.6c0.8-0.1,1.2-0.5,1.2-1c0-0.5-0.2-1-0.7-1.4
		c-0.4-0.4-1.1-0.5-2-0.5c-0.9,0-1.6,0.2-2.1,0.7c-0.5,0.5-0.8,1.1-0.9,1.8l-3.8-0.8c0.1-0.7,0.3-1.3,0.6-1.9
		c0.3-0.6,0.8-1.2,1.3-1.7c0.5-0.5,1.2-0.9,2.1-1.3c0.8-0.3,1.8-0.5,2.8-0.5c1.2,0,2.3,0.2,3.1,0.5c0.9,0.3,1.6,0.8,2.1,1.4
		c0.5,0.6,0.9,1.2,1.2,1.9c0.3,0.7,0.4,1.5,0.4,2.3v7.5c0,0.9,0.1,1.8,0.2,2.5h-4.2c-0.1-0.5-0.2-1.1-0.2-1.9
		c-0.4,0.7-1,1.2-1.7,1.7s-1.6,0.7-2.6,0.7c-1.6,0-2.9-0.5-3.9-1.4C-88.1,283.5-88.6,282.4-88.6,281.1z M-84.4,280.8
		c0,0.5,0.2,0.9,0.5,1.3c0.4,0.4,0.9,0.5,1.5,0.5c1,0,1.8-0.3,2.5-0.9c0.6-0.6,1-1.5,1-2.8v-0.7l-3.5,0.5c-0.6,0.1-1,0.3-1.4,0.6
		C-84.2,279.7-84.4,280.2-84.4,280.8z"/>
	<path class="st0" d="M-70.5,285.3v-23.1h4.2v13.2l5.4-5.8h5.5l-6.3,6.6l6.4,9.1h-5.2l-4.2-6l-1.7,1.9v4.1H-70.5z"/>
	<path class="st0" d="M-54.4,273.3v-3.6h2.6v-1.8c0-1.8,0.5-3.2,1.5-4.2c1-1.1,2.4-1.6,4.1-1.6c0.9,0,1.6,0.1,2.1,0.3v3.5
		c-0.4-0.1-0.8-0.2-1.3-0.2c-0.6,0-1.1,0.2-1.5,0.5c-0.4,0.3-0.7,0.9-0.7,1.7v1.7h3.5v3.6h-3.5v12h-4.2v-12H-54.4z"/>
	<path class="st0" d="M-42.4,281.1c0-1.3,0.4-2.4,1.3-3.3c0.9-0.8,2-1.3,3.4-1.5l3.9-0.6c0.8-0.1,1.2-0.5,1.2-1c0-0.5-0.2-1-0.7-1.4
		c-0.4-0.4-1.1-0.5-2-0.5c-0.9,0-1.6,0.2-2.1,0.7c-0.5,0.5-0.8,1.1-0.9,1.8l-3.8-0.8c0.1-0.7,0.3-1.3,0.6-1.9
		c0.3-0.6,0.8-1.2,1.3-1.7c0.5-0.5,1.2-0.9,2.1-1.3c0.8-0.3,1.8-0.5,2.8-0.5c1.2,0,2.3,0.2,3.1,0.5c0.9,0.3,1.6,0.8,2.1,1.4
		c0.5,0.6,0.9,1.2,1.2,1.9c0.3,0.7,0.4,1.5,0.4,2.3v7.5c0,0.9,0.1,1.8,0.2,2.5h-4.2c-0.1-0.5-0.2-1.1-0.2-1.9
		c-0.4,0.7-1,1.2-1.7,1.7c-0.7,0.4-1.6,0.7-2.6,0.7c-1.6,0-2.9-0.5-3.9-1.4C-41.9,283.5-42.4,282.4-42.4,281.1z M-38.2,280.8
		c0,0.5,0.2,0.9,0.5,1.3c0.4,0.4,0.9,0.5,1.5,0.5c1,0,1.8-0.3,2.5-0.9c0.6-0.6,1-1.5,1-2.8v-0.7l-3.5,0.5c-0.6,0.1-1,0.3-1.4,0.6
		C-38,279.7-38.2,280.2-38.2,280.8z"/>
	<path class="st0" d="M-25.4,280.9l3.6-0.8c0.1,0.7,0.3,1.2,0.8,1.7c0.5,0.5,1.2,0.7,2.1,0.7c0.7,0,1.2-0.2,1.5-0.5
		c0.4-0.3,0.5-0.7,0.5-1.1c0-0.8-0.6-1.3-1.7-1.5l-2.1-0.5c-1.5-0.3-2.7-0.9-3.5-1.7c-0.8-0.8-1.2-1.8-1.2-3c0-1.4,0.6-2.6,1.7-3.6
		c1.2-1,2.6-1.5,4.4-1.5c0.9,0,1.6,0.1,2.4,0.3c0.7,0.2,1.3,0.5,1.7,0.8c0.5,0.3,0.8,0.7,1.2,1.1c0.3,0.4,0.5,0.8,0.7,1.2
		c0.1,0.4,0.2,0.8,0.3,1.1l-3.6,0.8c-0.1-0.6-0.3-1.1-0.7-1.5c-0.4-0.4-1-0.6-1.8-0.6c-0.6,0-1,0.1-1.4,0.4s-0.6,0.7-0.6,1.1
		c0,0.4,0.1,0.7,0.4,0.9c0.3,0.2,0.6,0.4,1,0.5l2.2,0.5c1.5,0.3,2.7,0.9,3.5,1.8c0.8,0.9,1.2,1.9,1.2,3.1c0,0.7-0.1,1.3-0.4,1.9
		s-0.6,1.2-1.1,1.6c-0.5,0.5-1.1,0.9-1.9,1.2c-0.8,0.3-1.7,0.4-2.7,0.4c-0.9,0-1.7-0.1-2.5-0.3c-0.7-0.2-1.4-0.5-1.8-0.9
		c-0.5-0.3-0.9-0.7-1.2-1.2c-0.3-0.4-0.6-0.9-0.7-1.3C-25.3,281.7-25.4,281.3-25.4,280.9z"/>
	<path class="st0" d="M-11.4,273.4v-3.8h0.7c0.7,0,1.2-0.2,1.6-0.7c0.4-0.5,0.6-1,0.6-1.8V265h4.1v4.7h2.8v3.8h-2.8v6.6
		c0,0.7,0.1,1.1,0.4,1.4c0.3,0.3,0.7,0.4,1.3,0.4c0.5,0,0.9,0,1.2-0.1v3.5c-0.6,0.2-1.4,0.4-2.3,0.4c-1.5,0-2.6-0.4-3.5-1.3
		c-0.9-0.9-1.3-2-1.3-3.5v-7.3H-11.4z"/>
</g>
<path class="st1" d="M-228.2,273.9l-11.2-19.4c-0.5-0.9-1.4-1.4-2.4-1.4h-22.4c-1,0-1.9,0.5-2.4,1.4l-11.2,19.4
	c-0.5,0.9-0.5,1.9,0,2.8l11.2,19.4c0.5,0.9,1.4,1.4,2.4,1.4h22.4c1,0,1.9-0.5,2.4-1.4l11.2-19.4
	C-227.7,275.8-227.7,274.7-228.2,273.9z M-231.9,276.7l-9.4,16.2c-0.5,0.9-1.4,1.4-2.4,1.4h-18.7c-1,0-1.9-0.5-2.4-1.4l-9.4-16.2
	c-0.5-0.9-0.5-1.9,0-2.8l9.4-16.2c0.5-0.9,1.4-1.4,2.4-1.4h18.7c1,0,1.9,0.5,2.4,1.4l9.4,16.2C-231.4,274.7-231.4,275.8-231.9,276.7
	z"/>
<path class="st1" d="M-235.2,274.3l-8.1-14c-0.4-0.6-1-1-1.7-1h-16.2c-0.7,0-1.4,0.4-1.7,1l-8.1,14c-0.4,0.6-0.4,1.4,0,2l8.1,14
	c0.4,0.6,1,1,1.7,1h16.2c0.7,0,1.4-0.4,1.7-1l8.1-14C-234.8,275.7-234.8,274.9-235.2,274.3z"/>
<path class="st2" d="M-271.1,273.9c0.8-1.4,6.6-1.6,9.6-1.8s2.8-2.2,5.8-2.2c5,0,10,6,10,10.2s-0.6,6.8-4,7.2
	c-3.4,0.4-1.2,0.2-4,0.6c-2.8,0.4-3,3.6-6.6,3.6c-3.6,0-5.4-2.3-5.6-4s-3.4-3-3.6-4.8c-0.2-1.8-1.5-3.9-2-6
	C-271.9,274.6-271.1,273.9-271.1,273.9z"/>
<circle class="st1" cx="-259.5" cy="280.1" r="5.4"/>
<g>
	<path class="st3" d="M-263.3,279.8c-0.3,0-0.5-0.2-0.5-0.5c0-2.3,2-3.2,2.1-3.3c0.3-0.1,0.5,0,0.7,0.3c0.1,0.3,0,0.5-0.3,0.7l0,0
		c-0.1,0-1.5,0.7-1.5,2.3C-262.8,279.5-263,279.8-263.3,279.8z"/>
</g>
</svg>
