<?xml version="1.0" encoding="utf-8"?>
<!-- Generator: Adobe Illustrator 19.0.0, SVG Export Plug-In . SVG Version: 6.00 Build 0)  -->
<svg version="1.2" baseProfile="tiny" id="Layer_1" xmlns="http://www.w3.org/2000/svg" xmlns:xlink="http://www.w3.org/1999/xlink"
	 x="0px" y="0px" viewBox="0 0 280.9 97.5" xml:space="preserve">
<path id="XMLID_67_" fill="#231815" d="M90.4,92.5c15.1,0,27.1-7.9,27.1-17.9c0-13.8,0-70.2,0-70.2h-14.3c0,0,0,63.4,0,66.1
	c0,4.7-5.3,8.5-11.8,8.5s-11.8-3.8-11.8-8.5c0-7.9,0-47.4,0-47.4L64.7,42.8c0,0,0,22.9,0,31.5C64.7,82.8,75.3,92.5,90.4,92.5z"/>
<polygon id="XMLID_55_" fill="#231815" points="79.2,4.3 58.5,4.3 38.9,30.8 20.7,6.5 0,6.5 31.6,50 31.6,78.8 45.1,89.8 48.4,87.7 
	48.4,46 "/>
<path id="XMLID_59_" fill="#231815" d="M170.5,61.3c0,0,13.7-8,13.7-21.3c0-13.3-11-22.1-21.6-22.1s-32.5,0-32.5,0v76.4l4.2,3.1
	l11.6-15v-50c0,0,11.3,0,14.6,0c3.3,0,7.5,1.9,7.5,7.5s-3.3,9-7.3,9c-1.1,0-7,0-7,0l0,15.1l15.2,23.4h18.9L170.5,61.3z"/>
<polygon id="XMLID_73_" fill="#231815" points="280.9,0 260.2,0 241.3,26.2 225,4.3 204.3,4.3 232.9,42.6 233.2,87.3 237.1,90.2 
	251.9,71.3 252.1,41.1 "/>
<polygon id="XMLID_68_" fill="#231815" points="201,19.6 198.1,22.5 198.1,87.5 214.2,87.5 214.2,37.6 "/>
</svg>
